<?xml version="1.0" encoding="iso-8859-1"?>
<!-- Generator: Adobe Illustrator 19.0.0, SVG Export Plug-In . SVG Version: 6.00 Build 0)  -->
<svg version="1.1" id="Capa_1" xmlns="http://www.w3.org/2000/svg" xmlns:xlink="http://www.w3.org/1999/xlink" x="0px" y="0px"
	 viewBox="0 0 512 512" style="enable-background:new 0 0 512 512;" xml:space="preserve">
<path style="fill:#FF9F00;" d="M512,376c0,75.599-112.899,136-256,136S0,451.599,0,376c0-19.2,6.899-37.5,20.7-54.3
	c5.4-6.601,14.7-7.5,21.301-2.401H470c6.601-5.099,15.901-4.2,21.301,2.401C505.101,338.5,512,356.8,512,376z"/>
<path style="fill:#FDBF00;" d="M512,286c0,75.599-112.899,135-256,135S0,361.599,0,286c0-19.2,6.899-37.5,20.7-54.3
	c5.4-6.601,14.7-7.5,21.301-2.401H470c6.601-5.099,15.901-4.2,21.301,2.401C505.101,248.5,512,266.8,512,286z"/>
<path style="fill:#FF7816;" d="M512,376c0,75.599-112.899,136-256,136V319.3h213.999c6.601-5.099,15.901-4.2,21.301,2.401
	C505.101,338.5,512,356.8,512,376z"/>
<path style="fill:#FF9F00;" d="M512,286c0,75.599-112.899,135-256,135V229.3h213.999c6.601-5.099,15.901-4.2,21.301,2.401
	C505.101,248.5,512,266.8,512,286z"/>
<path style="fill:#68544F;" d="M512,196c0,51.599-54.101,97.8-139.9,120.599c-6.599,1.8-11.1,7.8-11.1,14.401v75
	c0,24.899-20.099,45-45,45s-45-20.101-45-45v-60c0-8.401-6.599-15-15-15c-9.6,0-19.2-0.3-28.801-0.901H226
	c-8.699,0.3-15,6.901-15,15V376c0,24.899-20.099,45-45,45s-45-20.101-45-45v-54.3c0-6.301-3.9-12.001-9.3-13.801
	C41.201,282.7,0,241.899,0,196c0-48.001,46.3-91.201,122.5-115.501l133.5-12.6l49.2-4.501C426.4,75.7,512,130.3,512,196z"/>
<path style="fill:#53433F;" d="M512,196c0,51.599-54.101,97.8-139.9,120.599c-6.599,1.8-11.1,7.8-11.1,14.401v75
	c0,24.899-20.099,45-45,45s-45-20.101-45-45v-60c0-8.401-6.599-15-15-15V67.899l49.2-4.501C426.4,75.7,512,130.3,512,196z"/>
<path style="fill:#77DD00;" d="M113.397,121.787C80.102,96.006,61,57.085,61,15c0-8.291,6.709-15,15-15s15,6.709,15,15
	c0,32.725,14.854,63.003,40.767,83.057c6.548,5.068,7.749,14.502,2.681,21.05C129.427,125.568,120.047,126.908,113.397,121.787z"/>
<path style="fill:#FF3636;" d="M377.8,143.2c-0.3-0.3-0.601-0.3-0.899-0.601l-72.001-86.4c0,0,0,0-0.3,0
	c-12.9-15.599-30-27.299-48.6-33.6C243.999,18.1,231.4,16,218.5,16C156.4,16,106,66.4,106,128.5S156.4,241,218.5,241H331
	c32.999,0,60-27.001,60-60C391,167.5,386.499,154.6,377.8,143.2z"/>
<path style="fill:#F40000;" d="M331,241h-75V22.599c18.6,6.301,35.7,18.001,48.6,33.6c0.3,0,0.3,0,0.3,0l72.001,86.4
	c0.298,0.3,0.599,0.3,0.899,0.601c8.699,11.4,13.2,24.3,13.2,37.8C391,213.999,363.999,241,331,241z"/>
<g>
	<circle style="fill:#FF9F00;" cx="286" cy="166" r="15"/>
	<circle style="fill:#FF9F00;" cx="241" cy="91" r="15"/>
</g>
<circle style="fill:#FDBF00;" cx="196" cy="166" r="15"/>
<g>
</g>
<g>
</g>
<g>
</g>
<g>
</g>
<g>
</g>
<g>
</g>
<g>
</g>
<g>
</g>
<g>
</g>
<g>
</g>
<g>
</g>
<g>
</g>
<g>
</g>
<g>
</g>
<g>
</g>
</svg>
